<svg xmlns="http://www.w3.org/2000/svg" version="1.1" xmlns:xlink="http://www.w3.org/1999/xlink" xmlns:svgjs="http://svgjs.dev/svgjs" width="2000" height="257" viewBox="0 0 2000 257"><g transform="matrix(1,0,0,1,-1.2121212121212466,-0.5840107420213059)"><svg viewBox="0 0 396 51" data-background-color="#ffffff" preserveAspectRatio="xMidYMid meet" height="257" width="2000" xmlns="http://www.w3.org/2000/svg" xmlns:xlink="http://www.w3.org/1999/xlink"><g id="tight-bounds" transform="matrix(1,0,0,1,0.2400000000000091,0.11589318226882028)"><svg viewBox="0 0 395.52 50.768213635462345" height="50.768213635462345" width="395.52"><g><svg viewBox="0 0 500.55666390730596 64.2505250048049" height="50.768213635462345" width="395.52"><g><rect width="5.765351892015037" height="64.2505250048049" x="84.17876779535628" y="0" fill="#0f28d5" opacity="1" stroke-width="0" stroke="transparent" fill-opacity="1" class="rect-qz-0" data-fill-palette-color="primary" rx="1%" id="qz-0" data-palette-color="#0f28d5"></rect></g><g transform="matrix(1,0,0,1,105.03666390730596,0.1598271766288626)"><svg viewBox="0 0 395.52 63.930870651547174" height="63.930870651547174" width="395.52"><g id="textblocktransform"><svg viewBox="0 0 395.52 63.930870651547174" height="63.930870651547174" width="395.52" id="textblock"><g><svg viewBox="0 0 395.52 63.930870651547174" height="63.930870651547174" width="395.52"><g transform="matrix(1,0,0,1,0,0)"><svg width="395.52" viewBox="2.15 -37.35 261.63 42.050000000000004" height="63.930870651547174" data-palette-color="#0f28d5"><g class="wordmark-text-0" data-fill-palette-color="primary" id="text-0"><path d="M20.6 0.35Q14.9 0.35 10.73-2.2 6.55-4.75 4.35-9.03 2.15-13.3 2.15-18.45L2.15-18.45Q2.15-23.9 4.53-28.2 6.9-32.5 11.2-34.93 15.5-37.35 20.95-37.35L20.95-37.35Q23.4-37.35 25.53-36.83 27.65-36.3 29.05-35.63 30.45-34.95 30.9-34.5L30.9-34.5 28.45-29.5Q25.4-32.2 20.5-32.2L20.5-32.2Q17.05-32.2 14.25-30.5 11.45-28.8 9.85-25.65 8.25-22.5 8.25-18.35L8.25-18.35Q8.25-14.55 9.68-11.45 11.1-8.35 13.85-6.55 16.6-4.75 20.4-4.75L20.4-4.75Q24.8-4.75 28.9-7.25L28.9-7.25 30.55-2.5Q29.45-1.5 26.53-0.58 23.6 0.35 20.6 0.35L20.6 0.35ZM53.25 0.5Q48.25 0.5 44.02-1.83 39.8-4.15 37.3-8.45 34.8-12.75 34.8-18.45L34.8-18.45Q34.8-24.2 37.3-28.48 39.8-32.75 44.02-35.05 48.25-37.35 53.25-37.35L53.25-37.35Q58.25-37.35 62.47-35.05 66.7-32.75 69.2-28.48 71.7-24.2 71.7-18.45L71.7-18.45Q71.7-12.75 69.2-8.45 66.7-4.15 62.47-1.83 58.25 0.5 53.25 0.5L53.25 0.5ZM53.25-4.55Q56.7-4.55 59.55-6.18 62.4-7.8 64.07-10.93 65.75-14.05 65.75-18.4L65.75-18.4Q65.75-22.8 64.07-25.93 62.4-29.05 59.57-30.65 56.75-32.25 53.25-32.25L53.25-32.25Q49.75-32.25 46.9-30.65 44.05-29.05 42.4-25.93 40.75-22.8 40.75-18.4L40.75-18.4Q40.75-14.05 42.45-10.93 44.15-7.8 47.02-6.18 49.9-4.55 53.25-4.55L53.25-4.55ZM77.95 0L77.95-36.75 83.6-36.75 83.6-5 94.15-5 94.15 0 77.95 0ZM99.54 0L99.54-36.75 105.19-36.75 105.19-5 115.74-5 115.74 0 99.54 0ZM138.04 0.5Q133.04 0.5 128.81-1.83 124.59-4.15 122.09-8.45 119.59-12.75 119.59-18.45L119.59-18.45Q119.59-24.2 122.09-28.48 124.59-32.75 128.81-35.05 133.04-37.35 138.04-37.35L138.04-37.35Q143.04-37.35 147.27-35.05 151.49-32.75 153.99-28.48 156.49-24.2 156.49-18.45L156.49-18.45Q156.49-12.75 153.99-8.45 151.49-4.15 147.27-1.83 143.04 0.5 138.04 0.5L138.04 0.5ZM138.04-4.55Q141.49-4.55 144.34-6.18 147.19-7.8 148.87-10.93 150.54-14.05 150.54-18.4L150.54-18.4Q150.54-22.8 148.87-25.93 147.19-29.05 144.37-30.65 141.54-32.25 138.04-32.25L138.04-32.25Q134.54-32.25 131.69-30.65 128.84-29.05 127.19-25.93 125.54-22.8 125.54-18.4L125.54-18.4Q125.54-14.05 127.24-10.93 128.94-7.8 131.81-6.18 134.69-4.55 138.04-4.55L138.04-4.55ZM198.09-18.45Q198.09-13.05 195.84-8.9 193.59-4.75 189.74-2.35L189.74-2.35 194.29 4.7 188.74 4.7 185.44-0.35Q182.59 0.5 179.64 0.5L179.64 0.5Q174.64 0.5 170.41-1.83 166.19-4.15 163.69-8.45 161.19-12.75 161.19-18.45L161.19-18.45Q161.19-24.2 163.69-28.48 166.19-32.75 170.41-35.05 174.64-37.35 179.64-37.35L179.64-37.35Q184.64-37.35 188.86-35.05 193.09-32.75 195.59-28.48 198.09-24.2 198.09-18.45L198.09-18.45ZM167.14-18.4Q167.14-14.05 168.84-10.93 170.54-7.8 173.41-6.18 176.29-4.55 179.64-4.55L179.64-4.55Q181.19-4.55 182.54-4.85L182.54-4.85 179.19-10.3 184.79-10.3 186.94-6.8Q189.39-8.55 190.76-11.5 192.14-14.45 192.14-18.4L192.14-18.4Q192.14-22.8 190.46-25.93 188.79-29.05 185.96-30.65 183.14-32.25 179.64-32.25L179.64-32.25Q176.14-32.25 173.29-30.65 170.44-29.05 168.79-25.93 167.14-22.8 167.14-18.4L167.14-18.4ZM216.99 0.5Q210.09 0.5 206.99-3.65 203.88-7.8 203.88-15.7L203.88-15.7 203.88-36.75 209.49-36.75 209.49-15.6Q209.49-9.75 211.24-7.23 212.99-4.7 216.99-4.7L216.99-4.7Q220.99-4.7 222.71-7.18 224.44-9.65 224.44-15.6L224.44-15.6 224.44-36.75 230.09-36.75 230.09-15.7Q230.09-7.85 226.81-3.68 223.53 0.5 216.99 0.5L216.99 0.5ZM245.48 0L245.48-17.15 232.73-36.75 239.43-36.75 248.28-22.25 257.13-36.75 263.78-36.75 251.08-17.05 251.08 0 245.48 0Z" fill="#0f28d5" data-fill-palette-color="primary"></path></g></svg></g></svg></g></svg></g></svg></g><g transform="matrix(1,0,0,1,0,2.7170620026907493)"><svg viewBox="0 0 69.08622357542163 58.8164009994234" height="58.8164009994234" width="69.08622357542163"><g><svg xmlns="http://www.w3.org/2000/svg" xmlns:xlink="http://www.w3.org/1999/xlink" version="1.1" x="0" y="0" viewBox="15.92199999999999 20.987000000000013 68.15663751685756 58.02499999999999" enable-background="new 0 0 100 100" xml:space="preserve" height="58.8164009994234" width="69.08622357542163" class="icon-icon-0" data-fill-palette-color="accent" id="icon-0"><g fill="#072f6d" data-fill-palette-color="accent"><g fill="#072f6d" data-fill-palette-color="accent"><path d="M72.771 79.012c-1.087 0-1.802-0.032-1.802-0.032l-26.001 0.001c-16.016 0-29.046-12.979-29.046-28.934 0-16.024 13.046-29.06 29.082-29.06S74.084 33.97 74.084 49.928V60.46c0 5.156 3.139 7.466 5.908 9.503 1.767 1.299 3.435 2.526 3.97 4.332 0.24 0.812 0.108 1.589-0.381 2.245C82.356 78.18 78.718 79.012 72.771 79.012zM45.003 22.988c-14.933 0-27.082 12.139-27.082 27.06 0 14.852 12.133 26.934 27.046 26.934h26.046c0.057 0.002 0.732 0.031 1.757 0.031 5.876 0 8.633-0.899 9.208-1.669 0.092-0.124 0.135-0.247 0.065-0.48-0.344-1.161-1.685-2.147-3.236-3.289-2.838-2.088-6.724-4.946-6.724-11.114V49.928C72.084 35.073 59.936 22.988 45.003 22.988z" fill="#072f6d" data-fill-palette-color="accent"></path></g><g fill="#072f6d" data-fill-palette-color="accent"><path d="M42.588 58.972L42.588 58.972c-1.112 0-2.41-0.807-2.41-3.079V44.936c0-2.272 1.298-3.079 2.409-3.079 0.694 0 1.415 0.287 2.142 0.852l5.964 4.634c1.016 0.789 1.598 1.909 1.598 3.072 0 1.163-0.582 2.283-1.598 3.072l-5.964 4.635C44.003 58.686 43.282 58.972 42.588 58.972zM42.588 43.857c-0.323 0-0.409 0.678-0.409 1.079v10.957c0 0.401 0.086 1.079 0.41 1.079l0 0c0.084 0 0.4-0.031 0.914-0.43l5.964-4.635c0.532-0.413 0.825-0.943 0.825-1.493s-0.293-1.08-0.825-1.493l-5.964-4.634C42.988 43.888 42.672 43.857 42.588 43.857z" fill="#072f6d" data-fill-palette-color="accent"></path></g></g></svg></g></svg></g></svg></g><defs></defs></svg><rect width="395.52" height="50.768213635462345" fill="none" stroke="none" visibility="hidden"></rect></g></svg></g></svg>